<?xml version="1.0" encoding="UTF-8"?>
<svg width="69.75mm" height="100.19mm" version="1.1" viewBox="0 0 65.856 100.19" xmlns="http://www.w3.org/2000/svg" xmlns:cc="http://creativecommons.org/ns#" xmlns:dc="http://purl.org/dc/elements/1.1/" xmlns:rdf="http://www.w3.org/1999/02/22-rdf-syntax-ns#">
 <metadata>
  <rdf:RDF>
   <cc:Work rdf:about="">
    <dc:format>image/svg+xml</dc:format>
    <dc:type rdf:resource="http://purl.org/dc/dcmitype/StillImage"/>
    <dc:title/>
   </cc:Work>
  </rdf:RDF>
 </metadata>
 <g transform="translate(-7.3869,-14.939)" stroke-width=".26458">
  <g transform="matrix(-1,0,0,1,61.692,0)" aria-label="V">
   <path d="m15.782 14.939 15.099 40.428 15.028-40.428h8.3961l-19.685 50.094h-7.4789l-19.756-50.094z" fill="#13262e" stroke-width=".26458">
    <animateTransform
     attributeName="transform"
     type="scale"
     values="1; 0.9; 1;"
     dur="4s"
     repeatCount="indefinite"
    />
   </path>
  </g>
  <g transform="matrix(-1,0,0,1,99.467,0)" aria-label="V">
   <path d="m34.67 14.939 15.099 40.428 15.028-40.428h8.3961l-19.685 50.094h-7.4789l-19.756-50.094z" fill="#162d36" stroke-width=".26458">
    <animateTransform
     attributeName="transform"
     type="scale"
     values="1; 0.9; 1;"
     begin="2s"
     dur="4s"
     repeatCount="indefinite"
    />
   </path>
  </g>
 </g>
 <g transform="matrix(-1 0 0 1 73.243 35.155)" stroke-width=".26458">
  <g transform="matrix(-1,0,0,1,61.692,0)" aria-label="V">
   <path d="m15.782 14.939 15.099 40.428 15.028-40.428h8.3961l-19.685 50.094h-7.4789l-19.756-50.094z" fill="#13262e" stroke-width=".26458">
    <animateTransform
     attributeName="transform"
     type="scale"
     values="1; 0.9; 1;"
     dur="4s"
     repeatCount="indefinite"
    />
   </path>
  </g>
  <g transform="matrix(-1,0,0,1,99.467,0)" aria-label="V">
   <path d="m34.67 14.939 15.099 40.428 15.028-40.428h8.3961l-19.685 50.094h-7.4789l-19.756-50.094z" fill="#162d36" stroke-width=".26458">
    <animateTransform
     attributeName="transform"
     type="scale"
     values="1; 0.9; 1;"
     begin="2s"
     dur="4s"
     repeatCount="indefinite"
    />
   </path>
  </g>
 </g>
</svg>
